<?xml version="1.0" encoding="iso-8859-1"?>
<!-- Generator: Adobe Illustrator 19.0.0, SVG Export Plug-In . SVG Version: 6.00 Build 0)  -->
<svg version="1.1" id="Capa_1" xmlns="http://www.w3.org/2000/svg" xmlns:xlink="http://www.w3.org/1999/xlink" x="0px" y="0px"
	 viewBox="0 0 512 512" style="enable-background:new 0 0 512 512;" xml:space="preserve">
<path style="fill:#FCF05A;" d="M256,311.467c-23.979,0-47.471-6.775-67.763-19.55c-0.29,0.794-0.461,1.638-0.503,2.483v102.4
	h136.533V294.4c-0.043-0.845-0.213-1.69-0.503-2.483C303.471,304.691,279.979,311.467,256,311.467z"/>
<polygon style="fill:#FDBD40;" points="196.267,396.8 187.733,396.8 162.133,396.8 162.133,456.533 349.867,456.533 349.867,396.8 
	324.267,396.8 315.733,396.8 "/>
<path style="fill:#FCF05A;" d="M110.933,456.533c-4.71,0-8.533,3.823-8.533,8.533V499.2c0,4.71,3.823,8.533,8.533,8.533h290.133
	c4.71,0,8.533-3.823,8.533-8.533v-34.133c0-4.71-3.823-8.533-8.533-8.533H110.933z"/>
<path style="fill:#FDBD40;" d="M409.6,189.73v164.403c0,4.71,3.823,8.533,8.533,8.533c2.261,0,4.429-0.896,6.033-2.5l28.1-28.1
	l28.1,28.1c1.596,1.604,3.772,2.5,6.033,2.5c1.118,0,2.236-0.213,3.268-0.649c3.191-1.323,5.265-4.437,5.265-7.885V135.364
	C475.119,164.395,444.279,184.038,409.6,189.73z"/>
<path style="fill:#FCF05A;" d="M512,55.467c0-4.71-3.823-8.533-8.533-8.533H384v136.533c0,2.85-0.239,5.641-0.427,8.448
	c0.154,0,0.273,0.085,0.427,0.085c8.585,0,17.152-0.759,25.6-2.27c34.679-5.692,65.519-25.335,85.333-54.366
	C505.975,118.81,511.915,99.371,512,79.471V55.467z"/>
<path style="fill:#FDBD40;" d="M17.067,135.364v218.769c0,4.71,3.823,8.533,8.533,8.533c2.261,0,4.429-0.896,6.033-2.5l28.1-28.1
	l28.1,28.1c1.596,1.604,3.772,2.5,6.033,2.5c1.118,0,2.236-0.213,3.268-0.649c3.191-1.323,5.265-4.437,5.265-7.885V189.73
	C67.721,184.038,36.881,164.395,17.067,135.364z"/>
<path style="fill:#FCF05A;" d="M128,55.467v-8.533H8.533C3.823,46.933,0,50.756,0,55.467v24.004
	c0.085,19.9,6.025,39.339,17.067,55.893c19.814,29.03,50.654,48.674,85.333,54.366c8.448,1.51,17.015,2.27,25.6,2.27
	c0.154,0,0.273-0.077,0.427-0.085c-0.188-2.807-0.427-5.598-0.427-8.448V55.467z"/>
<path style="fill:#FDBD40;" d="M384,55.467V16.887c0-6.972-5.649-12.621-12.621-12.621l0,0H140.621
	C133.649,4.267,128,9.916,128,16.887l0,0v166.579c0,2.85,0.239,5.641,0.427,8.448c4.617,70.46,65.468,123.836,135.927,119.219
	c64.026-4.19,115.029-55.194,119.219-119.219c0.188-2.807,0.427-5.598,0.427-8.448V55.467z M324.267,183.467H187.733V98.133h136.533
	V183.467z"/>
<rect x="187.733" y="98.133" style="fill:#FCF05A;" width="136.533" height="85.333"/>
<g>
</g>
<g>
</g>
<g>
</g>
<g>
</g>
<g>
</g>
<g>
</g>
<g>
</g>
<g>
</g>
<g>
</g>
<g>
</g>
<g>
</g>
<g>
</g>
<g>
</g>
<g>
</g>
<g>
</g>
</svg>
