<?xml version="1.0" encoding="iso-8859-1"?>
<!-- Generator: Adobe Illustrator 19.0.0, SVG Export Plug-In . SVG Version: 6.00 Build 0)  -->
<svg version="1.1" id="Capa_1" xmlns="http://www.w3.org/2000/svg" xmlns:xlink="http://www.w3.org/1999/xlink" x="0px" y="0px"
	 viewBox="0 0 440.947 440.947" style="enable-background:new 0 0 440.947 440.947;" xml:space="preserve">
<g>
	<path style="fill:#D4E1F4;" d="M425.273,67.396h-89.861v31.347H409.6v62.694c0,38.139-30.824,68.963-68.963,68.963h-8.882
		c-2.09,7.837-4.702,15.673-8.359,22.465c-1.567,3.135-3.135,5.747-4.702,8.882h21.943c55.38,0,100.31-44.931,100.31-100.31V83.069
		C440.947,74.188,434.155,67.396,425.273,67.396z"/>
	<path style="fill:#D4E1F4;" d="M109.192,230.4h-8.882c-38.139,0-68.963-30.824-68.963-68.963V98.743h74.188V67.396H15.673
		C6.792,67.396,0,74.188,0,83.069v78.367c0,55.38,44.931,100.31,100.31,100.31h21.943c-1.567-3.135-3.135-5.747-4.702-8.882
		C113.894,245.551,111.282,238.237,109.192,230.4z"/>
</g>
<path style="fill:#3A2C51;" d="M204.8,314.514v79.935h-54.335c-8.882,0-15.673,6.792-15.673,15.673s6.792,15.673,15.673,15.673
	h140.016c8.882,0,15.673-6.792,15.673-15.673s-6.792-15.673-15.673-15.673h-54.335v-79.935c-5.224,0.522-10.449,1.045-15.673,1.045
	S210.024,315.037,204.8,314.514z"/>
<path style="fill:#4DCFE0;" d="M336.98,230.4c2.612-9.404,3.657-19.853,3.657-29.78V98.743V67.396V30.824
	c0-8.882-6.792-15.673-15.673-15.673h-208.98c-8.882,0-15.673,6.792-15.673,15.673v36.571v31.347V200.62
	c0,9.927,1.567,20.376,3.657,29.78c2.09,7.837,4.702,15.151,8.359,22.465c1.567,3.135,3.135,6.269,4.702,8.882
	c18.808,32.392,50.678,53.29,87.771,57.992c5.225,0.522,10.449,1.045,15.673,1.045s10.449-0.522,15.673-1.045
	c37.094-4.702,68.963-26.122,87.771-57.992c1.567-2.612,3.135-5.747,4.702-8.882C332.278,246.073,334.89,238.237,336.98,230.4z"/>
<g>
</g>
<g>
</g>
<g>
</g>
<g>
</g>
<g>
</g>
<g>
</g>
<g>
</g>
<g>
</g>
<g>
</g>
<g>
</g>
<g>
</g>
<g>
</g>
<g>
</g>
<g>
</g>
<g>
</g>
</svg>
